# xmcd
#
# Track frame offsets:
#	150
#	13635
#	25783
#	37919
#	50829
#	60552
#	72863
#	85323
#	97259
#	108157
#	119253
#	129039
#	141362
#	156522
#	169095
#	179893
#	191704
#	204408
#	217756
#	227404
#
# Disc length: 3173 seconds
#
# Revision: 1
# Processed by: cddbd v1.4PL0 Copyright (c) Steve Scherf et al.
# Submitted via: audiograbber 1.82.02
#
DISCID=170c6314
DTITLE=Various Artist - Queens Of Country Vol. 1 And 2
DYEAR=1900
DGENRE=Country
TTITLE0=Lyn Anderson - Rose Garden
TTITLE1=Donna Fargo - United States Of America
TTITLE2=Dolly Parton - Letter To Heaven
TTITLE3=Billie Jo Spears - You've Got The Power
TTITLE4=Lyn Anderson - Snow Bird
TTITLE5=Donna Fargo - Funny Face
TTITLE6=Dolly Parton - Two Little Orphans
TTITLE7=Billie Jo Spears - Try A Little Kindness
TTITLE8=Lyn Anderson - Heaven's Just A Sin Away
TTITLE9=Donna Fargo - Happiest Girl In The Whole USA
TTITLE10=Lyn Anderson - Snowbird
TTITLE11=Billie Jo Spears - Misty Blue
TTITLE12=Lyn Anderson - Desperado
TTITLE13=Anne Murray - All The Time
TTITLE14=Dolly Parton - It Wasn't God Who Made Honky Tonk Angels
TTITLE15=Sammi Smith - Help Me Make It Through The Night
TTITLE16=Lyn Anderson - I Fall To Pieces
TTITLE17=Dottie West - D.I.V.O.R.C.E.
TTITLE18=Jeannie C. Riley - The Girl Most Likely To
TTITLE19=Donna Fargo - Wishful Thinking
EXTD=
EXTT0=
EXTT1=
EXTT2=
EXTT3=
EXTT4=
EXTT5=
EXTT6=
EXTT7=
EXTT8=
EXTT9=
EXTT10=
EXTT11=
EXTT12=
EXTT13=
EXTT14=
EXTT15=
EXTT16=
EXTT17=
EXTT18=
EXTT19=
PLAYORDER=
